<svg xmlns="http://www.w3.org/2000/svg" xmlns:xlink="http://www.w3.org/1999/xlink" width="120" zoomAndPan="magnify" viewBox="0 0 90 74.999997" height="100" preserveAspectRatio="xMidYMid meet" version="1.0"><defs><g/><clipPath id="d3d3dfc2f5"><path d="M 2.09375 3.71875 L 66 3.71875 L 66 29 L 2.09375 29 Z M 2.09375 3.71875 " clip-rule="nonzero"/></clipPath><clipPath id="87a875b74c"><path d="M 16 14 L 87.960938 14 L 87.960938 51.09375 L 16 51.09375 Z M 16 14 " clip-rule="nonzero"/></clipPath></defs><g clip-path="url(#d3d3dfc2f5)"><path fill="#fdda0d" d="M 62.570312 3.742188 C 63.945312 3.742188 65.0625 4.855469 65.0625 6.230469 C 65.0625 6.523438 65.007812 6.820312 64.902344 7.097656 L 56.839844 28.730469 L 17.007812 28.652344 C 12.6875 28.652344 9.183594 25.15625 9.183594 20.84375 C 9.183594 19.984375 9.328125 19.132812 9.605469 18.320312 L 9.675781 18.117188 L 51.140625 18.117188 L 52.589844 14.277344 L 9.914062 14.277344 C 5.597656 14.277344 2.09375 10.78125 2.09375 6.46875 C 2.09375 5.609375 2.234375 4.757812 2.511719 3.945312 L 2.585938 3.742188 Z M 62.570312 3.742188 " fill-opacity="1" fill-rule="evenodd"/></g><g clip-path="url(#87a875b74c)"><path fill="#7b7b7b" d="M 36.328125 38.726562 C 39.570312 38.726562 41.152344 41.207031 39.945312 44.539062 C 38.640625 48.140625 34.589844 51.109375 31.027344 51.109375 C 27.789062 51.109375 26.203125 48.628906 27.410156 45.300781 C 28.71875 41.695312 32.765625 38.726562 36.328125 38.726562 Z M 69.359375 38.726562 C 72.597656 38.726562 74.183594 41.207031 72.976562 44.539062 C 71.667969 48.140625 67.621094 51.109375 64.058594 51.109375 C 60.820312 51.109375 59.234375 48.628906 60.441406 45.300781 C 61.746094 41.695312 65.796875 38.726562 69.359375 38.726562 Z M 55.457031 32.4375 L 51.507812 43.027344 L 42.558594 43.027344 C 42.855469 39.328125 40.378906 36.488281 36.328125 36.488281 C 32.324219 36.488281 28.046875 39.289062 25.988281 43.027344 L 24.097656 43.027344 C 19.777344 43.027344 16.277344 39.53125 16.277344 35.21875 C 16.277344 34.359375 16.417969 33.507812 16.695312 32.695312 L 16.765625 32.492188 Z M 78.734375 14.433594 C 83.152344 14.433594 86.863281 17.457031 87.90625 21.546875 L 73.871094 21.546875 L 73.816406 21.699219 C 73.527344 22.527344 73.378906 23.394531 73.378906 24.269531 C 73.378906 28.539062 76.8125 32.011719 81.070312 32.078125 L 85.773438 32.078125 L 82.476562 40.921875 C 82.003906 42.1875 80.796875 43.027344 79.445312 43.027344 L 75.589844 43.027344 C 75.886719 39.328125 73.410156 36.488281 69.359375 36.488281 C 65.355469 36.488281 61.078125 39.289062 59.019531 43.027344 L 55.109375 43.027344 L 65.769531 14.433594 Z M 78.734375 14.433594 " fill-opacity="1" fill-rule="evenodd"/></g><g fill="#000000" fill-opacity="1"><g transform="translate(14.553524, 63.192158)"><g><path d="M 7.140625 -7 L 5.515625 0 L 3.03125 0 L 0.234375 -10.8125 L 3.03125 -10.8125 L 4.484375 -3.78125 L 4.515625 -3.78125 L 6.109375 -10.8125 L 8.21875 -10.8125 L 9.78125 -3.75 L 9.8125 -3.75 L 11.296875 -10.8125 L 14.078125 -10.8125 L 11.21875 0 L 8.796875 0 L 7.171875 -7 Z M 7.140625 -7 "/></g></g></g><g fill="#000000" fill-opacity="1"><g transform="translate(28.592611, 63.192158)"><g><path d="M 4.734375 -1.78125 C 5.054688 -1.78125 5.332031 -1.835938 5.5625 -1.953125 C 5.789062 -2.078125 6.003906 -2.273438 6.203125 -2.546875 L 8.6875 -2.546875 C 8.300781 -1.660156 7.757812 -0.96875 7.0625 -0.46875 C 6.363281 0.0195312 5.585938 0.265625 4.734375 0.265625 C 3.960938 0.265625 3.25 0.078125 2.59375 -0.296875 C 1.9375 -0.679688 1.410156 -1.203125 1.015625 -1.859375 C 0.628906 -2.515625 0.4375 -3.238281 0.4375 -4.03125 C 0.4375 -4.800781 0.625 -5.519531 1 -6.1875 C 1.382812 -6.851562 1.898438 -7.382812 2.546875 -7.78125 C 3.191406 -8.1875 3.90625 -8.390625 4.6875 -8.390625 C 5.488281 -8.390625 6.210938 -8.191406 6.859375 -7.796875 C 7.515625 -7.410156 8.03125 -6.878906 8.40625 -6.203125 C 8.78125 -5.535156 8.96875 -4.785156 8.96875 -3.953125 C 8.96875 -3.722656 8.945312 -3.507812 8.90625 -3.3125 L 2.828125 -3.3125 C 2.898438 -2.851562 3.109375 -2.484375 3.453125 -2.203125 C 3.804688 -1.921875 4.234375 -1.78125 4.734375 -1.78125 Z M 4.6875 -6.34375 C 4.238281 -6.34375 3.847656 -6.21875 3.515625 -5.96875 C 3.179688 -5.71875 2.960938 -5.378906 2.859375 -4.953125 L 6.546875 -4.953125 C 6.453125 -5.367188 6.234375 -5.703125 5.890625 -5.953125 C 5.554688 -6.210938 5.15625 -6.34375 4.6875 -6.34375 Z M 4.6875 -6.34375 "/></g></g></g><g fill="#000000" fill-opacity="1"><g transform="translate(37.740138, 63.192158)"><g><path d="M 4.28125 -10.8125 C 4.945312 -10.8125 5.585938 -10.726562 6.203125 -10.5625 C 6.828125 -10.40625 7.378906 -10.171875 7.859375 -9.859375 C 8.585938 -9.378906 9.160156 -8.734375 9.578125 -7.921875 C 10.003906 -7.117188 10.21875 -6.257812 10.21875 -5.34375 C 10.21875 -4.664062 10.082031 -4.007812 9.8125 -3.375 C 9.550781 -2.738281 9.164062 -2.15625 8.65625 -1.625 C 8.132812 -1.070312 7.5 -0.660156 6.75 -0.390625 C 6 -0.128906 5.160156 0 4.234375 0 L 1.078125 0 L 1.078125 -10.8125 Z M 7.9375 -2.28125 C 8.332031 -2.707031 8.628906 -3.191406 8.828125 -3.734375 C 9.023438 -4.273438 9.125 -4.832031 9.125 -5.40625 C 9.125 -6.101562 8.976562 -6.75 8.6875 -7.34375 C 8.394531 -7.945312 7.96875 -8.46875 7.40625 -8.90625 C 7.03125 -9.195312 6.554688 -9.421875 5.984375 -9.578125 C 5.421875 -9.742188 4.796875 -9.828125 4.109375 -9.828125 L 2.15625 -9.828125 L 2.15625 -0.984375 L 4.15625 -0.984375 C 5.851562 -0.984375 7.113281 -1.414062 7.9375 -2.28125 Z M 7.9375 -2.28125 "/></g></g></g><g fill="#000000" fill-opacity="1"><g transform="translate(48.316919, 63.192158)"><g><path d="M 4.703125 -0.734375 C 5.335938 -0.734375 5.921875 -0.898438 6.453125 -1.234375 C 6.984375 -1.578125 7.351562 -2.035156 7.5625 -2.609375 L 8.65625 -2.609375 C 8.351562 -1.765625 7.835938 -1.085938 7.109375 -0.578125 C 6.378906 -0.0664062 5.582031 0.1875 4.71875 0.1875 C 3.96875 0.1875 3.273438 0.00390625 2.640625 -0.359375 C 2.003906 -0.734375 1.5 -1.238281 1.125 -1.875 C 0.75 -2.519531 0.5625 -3.222656 0.5625 -3.984375 C 0.5625 -4.742188 0.75 -5.445312 1.125 -6.09375 C 1.5 -6.738281 2.003906 -7.25 2.640625 -7.625 C 3.285156 -8.007812 3.972656 -8.203125 4.703125 -8.203125 C 5.484375 -8.203125 6.191406 -8 6.828125 -7.59375 C 7.460938 -7.195312 7.960938 -6.671875 8.328125 -6.015625 C 8.703125 -5.359375 8.890625 -4.664062 8.890625 -3.9375 L 8.875 -3.625 L 1.609375 -3.625 C 1.640625 -3.101562 1.800781 -2.617188 2.09375 -2.171875 C 2.394531 -1.734375 2.773438 -1.382812 3.234375 -1.125 C 3.703125 -0.863281 4.191406 -0.734375 4.703125 -0.734375 Z M 4.703125 -7.28125 C 4.203125 -7.28125 3.734375 -7.164062 3.296875 -6.9375 C 2.859375 -6.707031 2.488281 -6.382812 2.1875 -5.96875 C 1.882812 -5.550781 1.691406 -5.078125 1.609375 -4.546875 L 7.84375 -4.546875 C 7.695312 -5.347656 7.332031 -6.003906 6.75 -6.515625 C 6.175781 -7.023438 5.492188 -7.28125 4.703125 -7.28125 Z M 4.703125 -7.28125 "/></g></g></g><g fill="#000000" fill-opacity="1"><g transform="translate(57.520464, 63.192158)"><g><path d="M 1.96875 -10.8125 L 1.96875 0 L 0.953125 0 L 0.953125 -10.8125 Z M 1.96875 -10.8125 "/></g></g></g><g fill="#000000" fill-opacity="1"><g transform="translate(60.150016, 63.192158)"><g><path d="M 1.96875 -10.8125 L 1.96875 -8.96875 L 0.953125 -8.96875 L 0.953125 -10.8125 Z M 1.96875 -7.984375 L 1.96875 0 L 0.953125 0 L 0.953125 -7.984375 Z M 1.96875 -7.984375 "/></g></g></g><g fill="#000000" fill-opacity="1"><g transform="translate(62.779567, 63.192158)"><g><path d="M 1.203125 -7.984375 L 4.015625 -1.265625 L 6.875 -7.984375 L 7.984375 -7.984375 L 4.609375 0 L 3.484375 0 L 0.109375 -7.984375 Z M 1.203125 -7.984375 "/></g></g></g><g fill="#000000" fill-opacity="1"><g transform="translate(70.580661, 63.192158)"><g><path d="M 4.703125 -0.734375 C 5.335938 -0.734375 5.921875 -0.898438 6.453125 -1.234375 C 6.984375 -1.578125 7.351562 -2.035156 7.5625 -2.609375 L 8.65625 -2.609375 C 8.351562 -1.765625 7.835938 -1.085938 7.109375 -0.578125 C 6.378906 -0.0664062 5.582031 0.1875 4.71875 0.1875 C 3.96875 0.1875 3.273438 0.00390625 2.640625 -0.359375 C 2.003906 -0.734375 1.5 -1.238281 1.125 -1.875 C 0.75 -2.519531 0.5625 -3.222656 0.5625 -3.984375 C 0.5625 -4.742188 0.75 -5.445312 1.125 -6.09375 C 1.5 -6.738281 2.003906 -7.25 2.640625 -7.625 C 3.285156 -8.007812 3.972656 -8.203125 4.703125 -8.203125 C 5.484375 -8.203125 6.191406 -8 6.828125 -7.59375 C 7.460938 -7.195312 7.960938 -6.671875 8.328125 -6.015625 C 8.703125 -5.359375 8.890625 -4.664062 8.890625 -3.9375 L 8.875 -3.625 L 1.609375 -3.625 C 1.640625 -3.101562 1.800781 -2.617188 2.09375 -2.171875 C 2.394531 -1.734375 2.773438 -1.382812 3.234375 -1.125 C 3.703125 -0.863281 4.191406 -0.734375 4.703125 -0.734375 Z M 4.703125 -7.28125 C 4.203125 -7.28125 3.734375 -7.164062 3.296875 -6.9375 C 2.859375 -6.707031 2.488281 -6.382812 2.1875 -5.96875 C 1.882812 -5.550781 1.691406 -5.078125 1.609375 -4.546875 L 7.84375 -4.546875 C 7.695312 -5.347656 7.332031 -6.003906 6.75 -6.515625 C 6.175781 -7.023438 5.492188 -7.28125 4.703125 -7.28125 Z M 4.703125 -7.28125 "/></g></g></g><g fill="#000000" fill-opacity="1"><g transform="translate(79.784205, 63.192158)"><g><path d="M 1.96875 -7.984375 L 1.96875 -6.84375 L 2 -6.84375 C 2.1875 -7.269531 2.453125 -7.59375 2.796875 -7.8125 C 3.140625 -8.03125 3.625 -8.160156 4.25 -8.203125 L 4.25 -7.109375 L 4.234375 -7.109375 C 3.515625 -7.046875 2.957031 -6.796875 2.5625 -6.359375 C 2.164062 -5.929688 1.96875 -5.382812 1.96875 -4.71875 L 1.96875 0 L 0.953125 0 L 0.953125 -7.984375 Z M 1.96875 -7.984375 "/></g></g></g><g fill="#7b7b7b" fill-opacity="1"><g transform="translate(22.25725, 70.270576)"><g><path d="M 1.21875 -1.203125 L 0.046875 -3.046875 L 0.828125 -3.046875 L 1.5625 -1.8125 L 2.296875 -3.046875 L 3.0625 -3.046875 L 1.890625 -1.21875 L 1.890625 0 L 1.21875 0 Z M 1.21875 -1.203125 "/></g></g></g><g fill="#7b7b7b" fill-opacity="1"><g transform="translate(25.279793, 70.270576)"><g><path d="M 1.84375 0.046875 C 1.601562 0.046875 1.382812 0.00390625 1.1875 -0.078125 C 1 -0.160156 0.832031 -0.269531 0.6875 -0.40625 C 0.539062 -0.539062 0.425781 -0.703125 0.34375 -0.890625 C 0.269531 -1.085938 0.234375 -1.296875 0.234375 -1.515625 C 0.234375 -1.734375 0.269531 -1.9375 0.34375 -2.125 C 0.425781 -2.320312 0.539062 -2.488281 0.6875 -2.625 C 0.832031 -2.769531 1.003906 -2.882812 1.203125 -2.96875 C 1.398438 -3.050781 1.613281 -3.09375 1.84375 -3.09375 C 2.082031 -3.09375 2.300781 -3.050781 2.5 -2.96875 C 2.695312 -2.882812 2.863281 -2.769531 3 -2.625 C 3.144531 -2.488281 3.257812 -2.328125 3.34375 -2.140625 C 3.425781 -1.953125 3.46875 -1.75 3.46875 -1.53125 L 3.46875 -1.515625 C 3.46875 -1.296875 3.425781 -1.09375 3.34375 -0.90625 C 3.257812 -0.71875 3.144531 -0.550781 3 -0.40625 C 2.851562 -0.269531 2.679688 -0.160156 2.484375 -0.078125 C 2.285156 0.00390625 2.070312 0.046875 1.84375 0.046875 Z M 1.84375 -0.5625 C 1.976562 -0.5625 2.101562 -0.585938 2.21875 -0.640625 C 2.332031 -0.691406 2.425781 -0.757812 2.5 -0.84375 C 2.582031 -0.925781 2.644531 -1.023438 2.6875 -1.140625 C 2.738281 -1.253906 2.765625 -1.378906 2.765625 -1.515625 C 2.765625 -1.648438 2.738281 -1.773438 2.6875 -1.890625 C 2.644531 -2.003906 2.582031 -2.101562 2.5 -2.1875 C 2.414062 -2.28125 2.316406 -2.347656 2.203125 -2.390625 C 2.097656 -2.441406 1.976562 -2.46875 1.84375 -2.46875 C 1.707031 -2.46875 1.582031 -2.441406 1.46875 -2.390625 C 1.351562 -2.347656 1.253906 -2.28125 1.171875 -2.1875 C 1.097656 -2.101562 1.035156 -2.003906 0.984375 -1.890625 C 0.941406 -1.773438 0.921875 -1.65625 0.921875 -1.53125 L 0.921875 -1.515625 C 0.921875 -1.390625 0.941406 -1.269531 0.984375 -1.15625 C 1.035156 -1.039062 1.101562 -0.9375 1.1875 -0.84375 C 1.269531 -0.757812 1.363281 -0.691406 1.46875 -0.640625 C 1.582031 -0.585938 1.707031 -0.5625 1.84375 -0.5625 Z M 1.84375 -0.5625 "/></g></g></g><g fill="#7b7b7b" fill-opacity="1"><g transform="translate(28.884265, 70.270576)"><g><path d="M 1.640625 0.046875 C 1.222656 0.046875 0.894531 -0.0625 0.65625 -0.28125 C 0.425781 -0.507812 0.3125 -0.847656 0.3125 -1.296875 L 0.3125 -3.046875 L 0.984375 -3.046875 L 0.984375 -1.328125 C 0.984375 -1.078125 1.039062 -0.882812 1.15625 -0.75 C 1.269531 -0.625 1.429688 -0.5625 1.640625 -0.5625 C 1.847656 -0.5625 2.007812 -0.625 2.125 -0.75 C 2.238281 -0.875 2.296875 -1.054688 2.296875 -1.296875 L 2.296875 -3.046875 L 2.96875 -3.046875 L 2.96875 -1.328125 C 2.96875 -1.097656 2.9375 -0.894531 2.875 -0.71875 C 2.8125 -0.550781 2.722656 -0.410156 2.609375 -0.296875 C 2.492188 -0.179688 2.351562 -0.09375 2.1875 -0.03125 C 2.019531 0.0195312 1.835938 0.046875 1.640625 0.046875 Z M 1.640625 0.046875 "/></g></g></g><g fill="#7b7b7b" fill-opacity="1"><g transform="translate(32.08052, 70.270576)"><g><path d="M 0.359375 -3.046875 L 1.75 -3.046875 C 2.132812 -3.046875 2.429688 -2.941406 2.640625 -2.734375 C 2.816406 -2.554688 2.90625 -2.320312 2.90625 -2.03125 C 2.90625 -1.78125 2.84375 -1.578125 2.71875 -1.421875 C 2.601562 -1.265625 2.445312 -1.148438 2.25 -1.078125 L 3 0 L 2.21875 0 L 1.5625 -0.96875 L 1.03125 -0.96875 L 1.03125 0 L 0.359375 0 Z M 1.71875 -1.5625 C 1.875 -1.5625 1.992188 -1.597656 2.078125 -1.671875 C 2.171875 -1.753906 2.21875 -1.863281 2.21875 -2 C 2.21875 -2.144531 2.171875 -2.253906 2.078125 -2.328125 C 1.992188 -2.398438 1.867188 -2.4375 1.703125 -2.4375 L 1.03125 -2.4375 L 1.03125 -1.5625 Z M 1.71875 -1.5625 "/></g></g></g><g fill="#7b7b7b" fill-opacity="1"><g transform="translate(35.133462, 70.270576)"><g/></g></g><g fill="#7b7b7b" fill-opacity="1"><g transform="translate(36.349426, 70.270576)"><g><path d="M 0.359375 -3.046875 L 1.546875 -3.046875 C 1.785156 -3.046875 2.003906 -3.003906 2.203125 -2.921875 C 2.398438 -2.847656 2.570312 -2.742188 2.71875 -2.609375 C 2.863281 -2.472656 2.972656 -2.3125 3.046875 -2.125 C 3.128906 -1.9375 3.171875 -1.738281 3.171875 -1.53125 L 3.171875 -1.515625 C 3.171875 -1.304688 3.128906 -1.109375 3.046875 -0.921875 C 2.972656 -0.734375 2.863281 -0.570312 2.71875 -0.4375 C 2.570312 -0.300781 2.398438 -0.191406 2.203125 -0.109375 C 2.003906 -0.0351562 1.785156 0 1.546875 0 L 0.359375 0 Z M 1.03125 -2.4375 L 1.03125 -0.609375 L 1.546875 -0.609375 C 1.679688 -0.609375 1.804688 -0.628906 1.921875 -0.671875 C 2.035156 -0.710938 2.128906 -0.773438 2.203125 -0.859375 C 2.285156 -0.941406 2.347656 -1.035156 2.390625 -1.140625 C 2.441406 -1.253906 2.46875 -1.378906 2.46875 -1.515625 C 2.46875 -1.648438 2.441406 -1.773438 2.390625 -1.890625 C 2.347656 -2.003906 2.285156 -2.097656 2.203125 -2.171875 C 2.128906 -2.253906 2.035156 -2.316406 1.921875 -2.359375 C 1.804688 -2.410156 1.679688 -2.4375 1.546875 -2.4375 Z M 1.03125 -2.4375 "/></g></g></g><g fill="#7b7b7b" fill-opacity="1"><g transform="translate(39.65859, 70.270576)"><g><path d="M 0.359375 -3.046875 L 2.65625 -3.046875 L 2.65625 -2.453125 L 1.03125 -2.453125 L 1.03125 -1.828125 L 2.46875 -1.828125 L 2.46875 -1.234375 L 1.03125 -1.234375 L 1.03125 -0.59375 L 2.6875 -0.59375 L 2.6875 0 L 0.359375 0 Z M 0.359375 -3.046875 "/></g></g></g><g fill="#7b7b7b" fill-opacity="1"><g transform="translate(42.481369, 70.270576)"><g><path d="M 0.359375 -3.046875 L 1.03125 -3.046875 L 1.03125 -0.609375 L 2.546875 -0.609375 L 2.546875 0 L 0.359375 0 Z M 0.359375 -3.046875 "/></g></g></g><g fill="#7b7b7b" fill-opacity="1"><g transform="translate(45.082669, 70.270576)"><g><path d="M 0.390625 -3.046875 L 1.0625 -3.046875 L 1.0625 0 L 0.390625 0 Z M 0.390625 -3.046875 "/></g></g></g><g fill="#7b7b7b" fill-opacity="1"><g transform="translate(46.454975, 70.270576)"><g><path d="M 0.109375 -3.046875 L 0.84375 -3.046875 L 1.640625 -0.90625 L 2.4375 -3.046875 L 3.15625 -3.046875 L 1.921875 0.015625 L 1.328125 0.015625 Z M 0.109375 -3.046875 "/></g></g></g><g fill="#7b7b7b" fill-opacity="1"><g transform="translate(49.625173, 70.270576)"><g><path d="M 0.359375 -3.046875 L 2.65625 -3.046875 L 2.65625 -2.453125 L 1.03125 -2.453125 L 1.03125 -1.828125 L 2.46875 -1.828125 L 2.46875 -1.234375 L 1.03125 -1.234375 L 1.03125 -0.59375 L 2.6875 -0.59375 L 2.6875 0 L 0.359375 0 Z M 0.359375 -3.046875 "/></g></g></g><g fill="#7b7b7b" fill-opacity="1"><g transform="translate(52.447951, 70.270576)"><g><path d="M 0.359375 -3.046875 L 1.75 -3.046875 C 2.132812 -3.046875 2.429688 -2.941406 2.640625 -2.734375 C 2.816406 -2.554688 2.90625 -2.320312 2.90625 -2.03125 C 2.90625 -1.78125 2.84375 -1.578125 2.71875 -1.421875 C 2.601562 -1.265625 2.445312 -1.148438 2.25 -1.078125 L 3 0 L 2.21875 0 L 1.5625 -0.96875 L 1.03125 -0.96875 L 1.03125 0 L 0.359375 0 Z M 1.71875 -1.5625 C 1.875 -1.5625 1.992188 -1.597656 2.078125 -1.671875 C 2.171875 -1.753906 2.21875 -1.863281 2.21875 -2 C 2.21875 -2.144531 2.171875 -2.253906 2.078125 -2.328125 C 1.992188 -2.398438 1.867188 -2.4375 1.703125 -2.4375 L 1.03125 -2.4375 L 1.03125 -1.5625 Z M 1.71875 -1.5625 "/></g></g></g><g fill="#7b7b7b" fill-opacity="1"><g transform="translate(55.500894, 70.270576)"><g><path d="M 1.21875 -1.203125 L 0.046875 -3.046875 L 0.828125 -3.046875 L 1.5625 -1.8125 L 2.296875 -3.046875 L 3.0625 -3.046875 L 1.890625 -1.21875 L 1.890625 0 L 1.21875 0 Z M 1.21875 -1.203125 "/></g></g></g><g fill="#7b7b7b" fill-opacity="1"><g transform="translate(58.523438, 70.270576)"><g/></g></g><g fill="#7b7b7b" fill-opacity="1"><g transform="translate(59.739404, 70.270576)"><g><path d="M 0.359375 -3.046875 L 2.6875 -3.046875 L 2.6875 -2.4375 L 1.03125 -2.4375 L 1.03125 -1.78125 L 2.484375 -1.78125 L 2.484375 -1.171875 L 1.03125 -1.171875 L 1.03125 0 L 0.359375 0 Z M 0.359375 -3.046875 "/></g></g></g><g fill="#7b7b7b" fill-opacity="1"><g transform="translate(62.501385, 70.270576)"><g><path d="M 0.359375 -3.046875 L 1.75 -3.046875 C 2.132812 -3.046875 2.429688 -2.941406 2.640625 -2.734375 C 2.816406 -2.554688 2.90625 -2.320312 2.90625 -2.03125 C 2.90625 -1.78125 2.84375 -1.578125 2.71875 -1.421875 C 2.601562 -1.265625 2.445312 -1.148438 2.25 -1.078125 L 3 0 L 2.21875 0 L 1.5625 -0.96875 L 1.03125 -0.96875 L 1.03125 0 L 0.359375 0 Z M 1.71875 -1.5625 C 1.875 -1.5625 1.992188 -1.597656 2.078125 -1.671875 C 2.171875 -1.753906 2.21875 -1.863281 2.21875 -2 C 2.21875 -2.144531 2.171875 -2.253906 2.078125 -2.328125 C 1.992188 -2.398438 1.867188 -2.4375 1.703125 -2.4375 L 1.03125 -2.4375 L 1.03125 -1.5625 Z M 1.71875 -1.5625 "/></g></g></g><g fill="#7b7b7b" fill-opacity="1"><g transform="translate(65.554327, 70.270576)"><g><path d="M 0.390625 -3.046875 L 1.0625 -3.046875 L 1.0625 0 L 0.390625 0 Z M 0.390625 -3.046875 "/></g></g></g><g fill="#7b7b7b" fill-opacity="1"><g transform="translate(66.926633, 70.270576)"><g><path d="M 0.359375 -3.046875 L 2.65625 -3.046875 L 2.65625 -2.453125 L 1.03125 -2.453125 L 1.03125 -1.828125 L 2.46875 -1.828125 L 2.46875 -1.234375 L 1.03125 -1.234375 L 1.03125 -0.59375 L 2.6875 -0.59375 L 2.6875 0 L 0.359375 0 Z M 0.359375 -3.046875 "/></g></g></g><g fill="#7b7b7b" fill-opacity="1"><g transform="translate(69.749412, 70.270576)"><g><path d="M 0.359375 -3.046875 L 0.984375 -3.046875 L 2.40625 -1.171875 L 2.40625 -3.046875 L 3.0625 -3.046875 L 3.0625 0 L 2.5 0 L 1.03125 -1.9375 L 1.03125 0 L 0.359375 0 Z M 0.359375 -3.046875 "/></g></g></g><g fill="#7b7b7b" fill-opacity="1"><g transform="translate(73.093319, 70.270576)"><g><path d="M 0.359375 -3.046875 L 1.546875 -3.046875 C 1.785156 -3.046875 2.003906 -3.003906 2.203125 -2.921875 C 2.398438 -2.847656 2.570312 -2.742188 2.71875 -2.609375 C 2.863281 -2.472656 2.972656 -2.3125 3.046875 -2.125 C 3.128906 -1.9375 3.171875 -1.738281 3.171875 -1.53125 L 3.171875 -1.515625 C 3.171875 -1.304688 3.128906 -1.109375 3.046875 -0.921875 C 2.972656 -0.734375 2.863281 -0.570312 2.71875 -0.4375 C 2.570312 -0.300781 2.398438 -0.191406 2.203125 -0.109375 C 2.003906 -0.0351562 1.785156 0 1.546875 0 L 0.359375 0 Z M 1.03125 -2.4375 L 1.03125 -0.609375 L 1.546875 -0.609375 C 1.679688 -0.609375 1.804688 -0.628906 1.921875 -0.671875 C 2.035156 -0.710938 2.128906 -0.773438 2.203125 -0.859375 C 2.285156 -0.941406 2.347656 -1.035156 2.390625 -1.140625 C 2.441406 -1.253906 2.46875 -1.378906 2.46875 -1.515625 C 2.46875 -1.648438 2.441406 -1.773438 2.390625 -1.890625 C 2.347656 -2.003906 2.285156 -2.097656 2.203125 -2.171875 C 2.128906 -2.253906 2.035156 -2.316406 1.921875 -2.359375 C 1.804688 -2.410156 1.679688 -2.4375 1.546875 -2.4375 Z M 1.03125 -2.4375 "/></g></g></g></svg>